<?xml version="1.0" encoding="UTF-8"?>
<svg xmlns="http://www.w3.org/2000/svg" xmlns:xlink="http://www.w3.org/1999/xlink" width="500pt" height="500pt" viewBox="0 0 500 500" version="1.1">
<g id="surface1014267">
<path style="fill-rule:nonzero;fill:rgb(94.509804%,73.72549%,9.803922%);fill-opacity:1;stroke-width:10;stroke-linecap:butt;stroke-linejoin:round;stroke:rgb(7.45098%,11.764706%,14.509804%);stroke-opacity:1;stroke-miterlimit:10;" d="M 176.280516 29.379779 C 176.280516 30.627512 175.268691 31.639337 174.019115 31.639337 C 172.771382 31.639337 171.759558 30.627512 171.759558 29.379779 C 171.759558 28.132046 172.771382 27.120221 174.019115 27.120221 C 175.268691 27.120221 176.280516 28.132046 176.280516 29.379779 Z M 176.280516 29.379779 " transform="matrix(2.119469,0,0,2.119469,10.5,10.5)"/>
<path style="fill-rule:nonzero;fill:rgb(89.411765%,89.411765%,97.647059%);fill-opacity:1;stroke-width:10;stroke-linecap:butt;stroke-linejoin:round;stroke:rgb(7.45098%,11.764706%,14.509804%);stroke-opacity:1;stroke-miterlimit:10;" d="M 196.620221 113 C 196.620221 159.182705 159.182705 196.620221 113 196.620221 C 66.817295 196.620221 29.379779 159.182705 29.379779 113 C 29.379779 66.817295 66.817295 29.379779 113 29.379779 C 159.182705 29.379779 196.620221 66.817295 196.620221 113 Z M 196.620221 113 " transform="matrix(2.119469,0,0,2.119469,10.5,10.5)"/>
<path style="fill-rule:nonzero;fill:rgb(94.509804%,73.72549%,9.803922%);fill-opacity:1;stroke-width:10;stroke-linecap:butt;stroke-linejoin:round;stroke:rgb(7.45098%,11.764706%,14.509804%);stroke-opacity:1;stroke-miterlimit:10;" d="M 196.620221 33.900737 C 196.620221 38.893512 192.572922 42.940811 187.580147 42.940811 C 182.587373 42.940811 178.540074 38.893512 178.540074 33.900737 C 178.540074 28.907963 182.587373 24.860663 187.580147 24.860663 C 192.572922 24.860663 196.620221 28.907963 196.620221 33.900737 Z M 196.620221 33.900737 " transform="matrix(2.119469,0,0,2.119469,10.5,10.5)"/>
<path style="fill-rule:nonzero;fill:rgb(53.333333%,53.72549%,72.54902%);fill-opacity:1;stroke-width:10;stroke-linecap:butt;stroke-linejoin:round;stroke:rgb(7.45098%,11.764706%,14.509804%);stroke-opacity:1;stroke-miterlimit:10;" d="M 201.139337 54.240442 C 201.139337 56.735908 199.115687 58.759558 196.620221 58.759558 C 194.122912 58.759558 192.099263 56.735908 192.099263 54.240442 C 192.099263 51.743133 194.122912 49.719484 196.620221 49.719484 C 199.115687 49.719484 201.139337 51.743133 201.139337 54.240442 Z M 201.139337 54.240442 " transform="matrix(2.119469,0,0,2.119469,10.5,10.5)"/>
<path style="fill-rule:nonzero;fill:rgb(98.431373%,80.392157%,34.901961%);fill-opacity:1;stroke-width:10;stroke-linecap:butt;stroke-linejoin:round;stroke:rgb(7.45098%,11.764706%,14.509804%);stroke-opacity:1;stroke-miterlimit:10;" d="M 187.580147 171.759558 C 187.580147 174.256867 185.556498 176.280516 183.059189 176.280516 C 180.563723 176.280516 178.540074 174.256867 178.540074 171.759558 C 178.540074 169.264092 180.563723 167.240442 183.059189 167.240442 C 185.556498 167.240442 187.580147 169.264092 187.580147 171.759558 Z M 42.940811 142.379779 C 42.940811 147.372553 38.893512 151.419853 33.900737 151.419853 C 28.907963 151.419853 24.860663 147.372553 24.860663 142.379779 C 24.860663 137.387004 28.907963 133.339705 33.900737 133.339705 C 38.893512 133.339705 42.940811 137.387004 42.940811 142.379779 Z M 42.940811 142.379779 " transform="matrix(2.119469,0,0,2.119469,10.5,10.5)"/>
<path style="fill-rule:nonzero;fill:rgb(53.333333%,53.72549%,72.54902%);fill-opacity:1;stroke-width:10;stroke-linecap:butt;stroke-linejoin:round;stroke:rgb(7.45098%,11.764706%,14.509804%);stroke-opacity:1;stroke-miterlimit:10;" d="M 61.019115 196.620221 C 61.019115 199.115687 58.995466 201.139337 56.5 201.139337 C 54.004534 201.139337 51.980885 199.115687 51.980885 196.620221 C 51.980885 194.122912 54.004534 192.099263 56.5 192.099263 C 58.995466 192.099263 61.019115 194.122912 61.019115 196.620221 Z M 61.019115 196.620221 " transform="matrix(2.119469,0,0,2.119469,10.5,10.5)"/>
<path style="fill-rule:nonzero;fill:rgb(100%,100%,100%);fill-opacity:1;stroke-width:10;stroke-linecap:butt;stroke-linejoin:round;stroke:rgb(7.45098%,11.764706%,14.509804%);stroke-opacity:1;stroke-miterlimit:10;" d="M 47.459926 116.389337 C 47.459926 119.50959 44.931286 122.040074 41.809189 122.040074 C 38.688935 122.040074 36.160295 119.50959 36.160295 116.389337 C 36.160295 113.269083 38.688935 110.740442 41.809189 110.740442 C 44.931286 110.740442 47.459926 113.269083 47.459926 116.389337 Z M 183.059189 75.709926 C 183.059189 77.582447 181.542373 79.099263 179.669853 79.099263 C 177.797332 79.099263 176.280516 77.582447 176.280516 75.709926 C 176.280516 73.837405 177.797332 72.32059 179.669853 72.32059 C 181.542373 72.32059 183.059189 73.837405 183.059189 75.709926 Z M 183.059189 75.709926 " transform="matrix(2.119469,0,0,2.119469,10.5,10.5)"/>
<path style="fill-rule:nonzero;fill:rgb(63.921569%,63.921569%,80.392157%);fill-opacity:1;stroke-width:10;stroke-linecap:butt;stroke-linejoin:round;stroke:rgb(7.45098%,11.764706%,14.509804%);stroke-opacity:1;stroke-miterlimit:10;" d="M 167.80441 112.718016 C 167.80441 142.986136 143.26812 167.522426 113 167.522426 C 82.73188 167.522426 58.19559 142.986136 58.19559 112.718016 C 58.19559 82.449896 82.73188 57.911763 113 57.911763 C 143.26812 57.911763 167.80441 82.449896 167.80441 112.718016 Z M 167.80441 112.718016 " transform="matrix(2.119469,0,0,2.119469,10.5,10.5)"/>
<path style="fill-rule:nonzero;fill:rgb(27.843137%,16.862745%,16.078431%);fill-opacity:1;stroke-width:10;stroke-linecap:butt;stroke-linejoin:round;stroke:rgb(7.45098%,11.764706%,14.509804%);stroke-opacity:1;stroke-miterlimit:10;" d="M 113 169.103748 C 81.909887 169.103748 56.612425 143.809972 56.612425 112.718016 C 56.612425 81.624217 81.909887 56.330441 113 56.330441 C 144.090113 56.330441 169.387575 81.624217 169.387575 112.718016 C 169.387575 143.809972 144.090113 169.103748 113 169.103748 Z M 113 59.494928 C 83.653396 59.494928 59.776912 83.369569 59.776912 112.718016 C 59.776912 142.066463 83.653396 165.941105 113 165.941105 C 142.346604 165.941105 166.223088 142.066463 166.223088 112.718016 C 166.223088 83.369569 142.346604 59.494928 113 59.494928 Z M 113 59.494928 " transform="matrix(2.119469,0,0,2.119469,10.5,10.5)"/>
<path style="fill-rule:nonzero;fill:rgb(33.72549%,37.254902%,63.137255%);fill-opacity:1;stroke-width:10;stroke-linecap:butt;stroke-linejoin:round;stroke:rgb(7.45098%,11.764706%,14.509804%);stroke-opacity:1;stroke-miterlimit:10;" d="M 159.330147 112.248043 C 159.330147 137.834861 138.586818 158.57819 113 158.57819 C 87.413182 158.57819 66.669853 137.834861 66.669853 112.248043 C 66.669853 86.659382 87.413182 65.917895 113 65.917895 C 138.586818 65.917895 159.330147 86.659382 159.330147 112.248043 Z M 159.330147 112.248043 " transform="matrix(2.119469,0,0,2.119469,10.5,10.5)"/>
<path style="fill-rule:nonzero;fill:rgb(27.843137%,16.862745%,16.078431%);fill-opacity:1;stroke-width:10;stroke-linecap:butt;stroke-linejoin:round;stroke:rgb(7.45098%,11.764706%,14.509804%);stroke-opacity:1;stroke-miterlimit:10;" d="M 156.897345 100.852574 C 156.41447 100.852574 155.966613 100.539258 155.817328 100.052698 C 155.61828 99.40395 155.404489 98.762575 155.175953 98.124886 C 154.289454 95.651536 153.174419 93.244536 151.854808 90.962862 C 151.53965 90.424697 151.725796 89.731716 152.265804 89.418401 C 152.805813 89.101399 153.49695 89.291232 153.808422 89.833083 C 155.196226 92.230868 156.372081 94.763195 157.302812 97.360027 C 157.542406 98.032734 157.769099 98.705441 157.975519 99.387363 C 158.159822 99.984505 157.82439 100.616666 157.225404 100.800969 C 157.116666 100.835986 157.006084 100.852574 156.897345 100.852574 Z M 156.897345 100.852574 " transform="matrix(2.119469,0,0,2.119469,10.5,10.5)"/>
<path style="fill-rule:nonzero;fill:rgb(27.843137%,16.862745%,16.078431%);fill-opacity:1;stroke-width:10;stroke-linecap:butt;stroke-linejoin:round;stroke:rgb(7.45098%,11.764706%,14.509804%);stroke-opacity:1;stroke-miterlimit:10;" d="M 113 159.894115 C 86.985598 159.894115 65.822058 138.793238 65.822058 112.858087 C 65.822058 86.921092 86.985598 65.822058 113 65.822058 C 126.503898 65.822058 139.383008 71.607336 148.336459 81.694252 C 149.012852 82.455425 149.667129 83.2424 150.291917 84.047805 C 150.673424 84.539894 150.586802 85.247619 150.096555 85.630969 C 149.602623 86.018006 148.893055 85.927698 148.509704 85.431922 C 147.912562 84.667064 147.289617 83.920635 146.646399 83.194481 C 138.122374 73.590439 125.856994 68.079772 113 68.079772 C 88.233331 68.079772 68.081615 88.166982 68.081615 112.858087 C 68.081615 137.547348 88.233331 157.634558 113 157.634558 C 137.766669 157.634558 157.918385 137.547348 157.918385 112.858087 C 157.918385 110.609587 157.748826 108.346343 157.415237 106.138391 C 157.323085 105.524661 157.748826 104.947792 158.364398 104.85564 C 158.992873 104.75243 159.558683 105.187386 159.650835 105.804802 C 159.999168 108.121493 160.177942 110.495319 160.177942 112.858087 C 160.177942 138.793238 139.014402 159.894115 113 159.894115 Z M 113 159.894115 " transform="matrix(2.119469,0,0,2.119469,10.5,10.5)"/>
<path style="fill-rule:nonzero;fill:rgb(99.607843%,99.215686%,93.72549%);fill-opacity:1;stroke-width:10;stroke-linecap:butt;stroke-linejoin:round;stroke:rgb(7.45098%,11.764706%,14.509804%);stroke-opacity:1;stroke-miterlimit:10;" d="M 144.639337 109.610663 C 144.639337 121.468734 135.027923 131.080147 123.169853 131.080147 L 120.744422 131.080147 C 124.194579 132.956354 126.559189 136.566855 126.559189 140.767126 L 126.559189 153.909789 C 126.559189 154.794445 126.43202 155.64224 126.236658 156.464232 C 114.568421 159.202978 105.355102 158.11006 99.873924 156.805193 C 99.621428 155.876305 99.442654 154.917928 99.442654 153.907946 L 99.442654 145.946046 C 90.520534 147.381769 85.909267 143.415563 84.163916 139.928546 C 82.119993 135.835171 82.119993 135.835171 80.072384 133.787562 C 78.024775 131.741796 78.026618 129.694187 80.072384 129.694187 C 82.116307 129.694187 84.163916 129.694187 88.257291 135.835171 C 90.62743 139.392223 95.734473 139.510177 99.621428 138.984913 C 100.179867 135.553187 102.308569 132.681743 105.255578 131.080147 L 102.830147 131.080147 C 90.972077 131.080147 81.360663 121.468734 81.360663 109.610663 C 81.360663 103.959926 83.559401 98.834453 87.123826 95.002789 C 86.331322 91.244846 86.7073 86.60962 88.253605 81.970707 C 96.438511 81.970707 102.579495 88.108005 102.579495 88.108005 C 102.579495 88.108005 102.548163 88.144866 102.540791 88.154081 C 102.638472 88.154081 102.732467 88.139337 102.830147 88.139337 L 123.169853 88.139337 C 123.317295 88.139337 123.457366 88.157767 123.601122 88.15961 C 123.591907 88.148552 123.556889 88.108005 123.556889 88.108005 C 123.556889 88.108005 129.69603 81.970707 137.88278 81.970707 C 139.445671 86.659382 139.805063 91.342527 138.981227 95.1189 C 142.484832 98.941349 144.639337 104.01706 144.639337 109.610663 Z M 144.639337 109.610663 " transform="matrix(2.119469,0,0,2.119469,10.5,10.5)"/>
<path style="fill-rule:nonzero;fill:rgb(27.843137%,16.862745%,16.078431%);fill-opacity:1;stroke-width:10;stroke-linecap:butt;stroke-linejoin:round;stroke:rgb(7.45098%,11.764706%,14.509804%);stroke-opacity:1;stroke-miterlimit:10;" d="M 111.942099 159.298816 C 106.903249 159.298816 102.732467 158.650069 99.61037 157.905483 C 99.206746 157.811489 98.887901 157.501859 98.779162 157.103764 C 98.458475 155.924224 98.309189 154.90687 98.309189 153.909789 L 98.309189 147.239855 C 87.997423 148.400966 84.119683 142.370564 83.152091 140.433537 C 81.185575 136.504192 81.185575 136.504192 79.272508 134.587438 C 77.6875 133.00243 77.059026 131.292096 77.587976 130.014875 C 77.969484 129.093359 78.874413 128.564408 80.068698 128.564408 C 82.820345 128.564408 85.083589 129.041754 89.195394 135.206697 C 91.091874 138.050496 95.242383 138.323265 98.672266 137.960187 C 99.192002 135.748548 100.307036 133.767289 101.888358 132.18781 C 89.862572 131.693877 80.230885 121.75809 80.230885 109.610663 C 80.230885 104.090782 82.243476 98.806808 85.909267 94.665514 C 85.21813 90.77303 85.665987 86.165449 87.184646 81.613159 C 87.337617 81.152401 87.768887 80.840928 88.255448 80.840928 C 95.841369 80.840928 101.659822 85.721278 103.06237 87.009558 L 123.072172 87.009558 C 124.476562 85.721278 130.293173 80.840928 137.880937 80.840928 C 138.365654 80.840928 138.798767 81.152401 138.951739 81.613159 C 140.486985 86.217054 140.92194 90.87071 140.197629 94.788997 C 143.793385 98.915547 145.767272 104.158974 145.767272 109.612507 C 145.767272 121.759933 136.133742 131.699406 124.106113 132.191496 C 126.367514 134.445525 127.687125 137.51233 127.687125 140.767126 L 127.687125 153.909789 C 127.687125 154.796288 127.571014 155.717804 127.33142 156.725943 C 127.233739 157.144311 126.905679 157.466842 126.489154 157.564522 C 121.094598 158.832529 116.206876 159.298816 111.942099 159.298816 Z M 100.800969 155.861561 C 106.250816 157.074276 114.706648 157.894425 125.276439 155.526129 C 125.377805 154.954789 125.42941 154.422152 125.42941 153.909789 L 125.42941 140.767126 C 125.42941 137.156625 123.427877 133.828109 120.204413 132.073542 C 119.751028 131.828419 119.522492 131.303154 119.649661 130.80185 C 119.774987 130.300545 120.228373 129.950369 120.742579 129.950369 L 123.169853 129.950369 C 134.384704 129.950369 143.509558 120.825515 143.509558 109.610663 C 143.509558 104.531266 141.605705 99.656446 138.146334 95.881915 C 137.897524 95.61099 137.799843 95.236854 137.875408 94.879306 C 138.623679 91.451266 138.33248 87.304443 137.06263 83.122602 C 130.575157 83.469093 125.539992 87.809434 124.537383 88.736479 C 124.330963 89.07744 123.984473 89.293075 123.567948 89.293075 C 123.55136 89.293075 123.35047 89.278331 123.335725 89.278331 L 102.830147 89.269115 C 102.487343 89.269115 102.080033 89.117987 101.831224 88.861805 L 101.783305 88.907881 C 101.728014 88.854433 96.274481 83.507796 89.075597 83.120759 C 87.816806 87.258367 87.516392 91.366486 88.233331 94.768724 C 88.308895 95.128115 88.203843 95.502251 87.95319 95.771334 C 84.429312 99.556922 82.490442 104.472289 82.490442 109.610663 C 82.490442 120.825515 91.615296 129.950369 102.830147 129.950369 L 105.255578 129.950369 C 105.771627 129.950369 106.22317 130.300545 106.348496 130.80185 C 106.477508 131.303154 106.248972 131.826576 105.793743 132.073542 C 103.069742 133.551654 101.224866 136.139271 100.73462 139.169216 C 100.653526 139.661306 100.264646 140.040971 99.770714 140.10732 C 93.749527 140.916411 89.446046 139.659463 87.315501 136.465488 C 83.557558 130.829495 81.863811 130.829495 80.068698 130.829495 C 79.759068 130.829495 79.663231 130.901373 79.661388 130.901373 C 79.604254 131.046973 79.757225 131.88371 80.866731 132.995058 C 83.043352 135.169836 83.122602 135.328337 85.172054 139.429084 C 86.006948 141.091499 89.492122 146.417863 99.258351 144.834698 C 99.59194 144.786779 99.919999 144.877088 100.172495 145.089036 C 100.423147 145.306514 100.57059 145.617987 100.57059 145.951576 L 100.57059 153.913475 C 100.57059 154.519833 100.644311 155.151993 100.800969 155.861561 Z M 100.800969 155.861561 " transform="matrix(2.119469,0,0,2.119469,10.5,10.5)"/>
<path style="fill-rule:nonzero;fill:rgb(99.607843%,99.215686%,93.72549%);fill-opacity:1;stroke-width:10;stroke-linecap:butt;stroke-linejoin:round;stroke:rgb(7.45098%,11.764706%,14.509804%);stroke-opacity:1;stroke-miterlimit:10;" d="M 136.587128 116.077864 C 134.554263 120.584078 130.088596 124.330963 122.228063 124.959437 " transform="matrix(2.119469,0,0,2.119469,10.5,10.5)"/>
<path style="fill-rule:nonzero;fill:rgb(27.843137%,16.862745%,16.078431%);fill-opacity:1;stroke-width:10;stroke-linecap:butt;stroke-linejoin:round;stroke:rgb(7.45098%,11.764706%,14.509804%);stroke-opacity:1;stroke-miterlimit:10;" d="M 122.228063 125.525248 C 121.936864 125.525248 121.689898 125.298555 121.664095 125.005513 C 121.640136 124.69404 121.870515 124.421272 122.181987 124.397312 C 130.781576 123.708018 134.480542 119.363991 136.072922 115.845642 C 136.203777 115.558129 136.535523 115.43096 136.821193 115.563658 C 137.103177 115.690827 137.232189 116.024416 137.103177 116.308243 C 134.677747 121.680682 129.412203 124.950222 122.272296 125.523405 C 122.259395 125.525248 122.242807 125.525248 122.228063 125.525248 Z M 122.228063 125.525248 " transform="matrix(2.119469,0,0,2.119469,10.5,10.5)"/>
<path style="fill-rule:nonzero;fill:rgb(99.607843%,99.215686%,93.72549%);fill-opacity:1;stroke-width:10;stroke-linecap:butt;stroke-linejoin:round;stroke:rgb(7.45098%,11.764706%,14.509804%);stroke-opacity:1;stroke-miterlimit:10;" d="M 137.766669 107.146529 C 138.017321 108.847648 138.013635 110.65382 137.70032 112.439718 " transform="matrix(2.119469,0,0,2.119469,10.5,10.5)"/>
<path style="fill-rule:nonzero;fill:rgb(27.843137%,16.862745%,16.078431%);fill-opacity:1;stroke-width:10;stroke-linecap:butt;stroke-linejoin:round;stroke:rgb(7.45098%,11.764706%,14.509804%);stroke-opacity:1;stroke-miterlimit:10;" d="M 137.702163 113.003686 C 137.667145 113.003686 137.635814 113.001843 137.602639 112.996314 C 137.294853 112.942866 137.088433 112.649824 137.143724 112.342037 C 137.434923 110.683308 137.457039 108.913997 137.20823 107.227623 C 137.162154 106.919836 137.375946 106.63048 137.683732 106.58809 C 137.993362 106.543858 138.280875 106.753963 138.325108 107.065436 C 138.596033 108.893724 138.572074 110.734913 138.255072 112.537399 C 138.21084 112.812011 137.971245 113.003686 137.702163 113.003686 Z M 137.702163 113.003686 " transform="matrix(2.119469,0,0,2.119469,10.5,10.5)"/>
<path style="fill-rule:nonzero;fill:rgb(99.607843%,99.215686%,93.72549%);fill-opacity:1;stroke-width:10;stroke-linecap:butt;stroke-linejoin:round;stroke:rgb(7.45098%,11.764706%,14.509804%);stroke-opacity:1;stroke-miterlimit:10;" d="M 133.527694 99.156984 C 134.957888 100.176181 136.117155 101.822009 136.891228 103.801425 " transform="matrix(2.119469,0,0,2.119469,10.5,10.5)"/>
<path style="fill-rule:nonzero;fill:rgb(27.843137%,16.862745%,16.078431%);fill-opacity:1;stroke-width:10;stroke-linecap:butt;stroke-linejoin:round;stroke:rgb(7.45098%,11.764706%,14.509804%);stroke-opacity:1;stroke-miterlimit:10;" d="M 136.891228 104.369079 C 136.664535 104.369079 136.452587 104.230852 136.364121 104.009688 C 135.608478 102.074504 134.51556 100.555846 133.199635 99.621428 C 132.947139 99.440811 132.886319 99.086949 133.066936 98.83261 C 133.249397 98.576429 133.599573 98.519295 133.855754 98.696226 C 135.352296 99.763342 136.583442 101.458931 137.416493 103.598692 C 137.530761 103.889891 137.385161 104.216108 137.095805 104.330376 C 137.027613 104.356178 136.961264 104.369079 136.891228 104.369079 Z M 136.891228 104.369079 " transform="matrix(2.119469,0,0,2.119469,10.5,10.5)"/>
<path style=" stroke:none;fill-rule:nonzero;fill:rgb(18.039216%,80%,44.313725%);fill-opacity:1;" d="M 379.328125 67.980469 C 376.683594 67.980469 374.539062 70.125 374.539062 72.769531 C 374.539062 75.414062 376.683594 77.558594 379.328125 77.558594 C 381.976562 77.558594 384.121094 75.414062 384.121094 72.769531 C 384.121094 70.125 381.976562 67.980469 379.328125 67.980469 Z M 379.328125 67.980469 "/>
<path style=" stroke:none;fill-rule:nonzero;fill:rgb(100%,100%,100%);fill-opacity:1;" d="M 250 72.769531 C 152.117188 72.769531 72.769531 152.117188 72.769531 250 C 72.769531 347.882812 152.117188 427.230469 250 427.230469 C 347.882812 427.230469 427.230469 347.882812 427.230469 250 C 427.230469 152.117188 347.882812 72.769531 250 72.769531 Z M 250 72.769531 "/>
<path style=" stroke:none;fill-rule:nonzero;fill:rgb(18.039216%,80%,44.313725%);fill-opacity:1;" d="M 408.070312 63.191406 C 397.488281 63.191406 388.910156 71.769531 388.910156 82.351562 C 388.910156 92.933594 397.488281 101.511719 408.070312 101.511719 C 418.652344 101.511719 427.230469 92.933594 427.230469 82.351562 C 427.230469 71.769531 418.652344 63.191406 408.070312 63.191406 Z M 408.070312 63.191406 "/>
<path style=" stroke:none;fill-rule:nonzero;fill:rgb(20.392157%,28.627451%,36.862745%);fill-opacity:1;" d="M 427.230469 115.878906 C 421.9375 115.878906 417.648438 120.167969 417.648438 125.460938 C 417.648438 130.75 421.9375 135.039062 427.230469 135.039062 C 432.519531 135.039062 436.808594 130.75 436.808594 125.460938 C 436.808594 120.167969 432.519531 115.878906 427.230469 115.878906 Z M 427.230469 115.878906 "/>
<path style=" stroke:none;fill-rule:nonzero;fill:rgb(20.392157%,59.607843%,85.882353%);fill-opacity:1;" d="M 398.488281 364.960938 C 393.199219 364.960938 388.910156 369.25 388.910156 374.539062 C 388.910156 379.832031 393.199219 384.121094 398.488281 384.121094 C 403.78125 384.121094 408.070312 379.832031 408.070312 374.539062 C 408.070312 369.25 403.78125 364.960938 398.488281 364.960938 Z M 82.351562 293.109375 C 71.769531 293.109375 63.191406 301.6875 63.191406 312.269531 C 63.191406 322.851562 71.769531 331.429688 82.351562 331.429688 C 92.933594 331.429688 101.511719 322.851562 101.511719 312.269531 C 101.511719 301.6875 92.933594 293.109375 82.351562 293.109375 Z M 82.351562 293.109375 "/>
<path style=" stroke:none;fill-rule:nonzero;fill:rgb(20.392157%,28.627451%,36.862745%);fill-opacity:1;" d="M 130.25 417.648438 C 124.960938 417.648438 120.671875 421.9375 120.671875 427.230469 C 120.671875 432.519531 124.960938 436.808594 130.25 436.808594 C 135.539062 436.808594 139.828125 432.519531 139.828125 427.230469 C 139.828125 421.9375 135.539062 417.648438 130.25 417.648438 Z M 130.25 417.648438 "/>
<path style=" stroke:none;fill-rule:nonzero;fill:rgb(100%,100%,100%);fill-opacity:1;" d="M 99.113281 245.210938 C 92.5 245.210938 87.140625 250.570312 87.140625 257.183594 C 87.140625 263.796875 92.5 269.160156 99.113281 269.160156 C 105.730469 269.160156 111.089844 263.796875 111.089844 257.183594 C 111.089844 250.570312 105.730469 245.210938 99.113281 245.210938 Z M 391.304688 163.78125 C 387.335938 163.78125 384.121094 166.996094 384.121094 170.964844 C 384.121094 174.933594 387.335938 178.148438 391.304688 178.148438 C 395.273438 178.148438 398.488281 174.933594 398.488281 170.964844 C 398.488281 166.996094 395.273438 163.78125 391.304688 163.78125 Z M 391.304688 163.78125 "/>
<path style=" stroke:none;fill-rule:nonzero;fill:rgb(63.921569%,63.921569%,80.392157%);fill-opacity:1;" d="M 250 133.242188 C 185.847656 133.242188 133.84375 185.25 133.84375 249.402344 C 133.84375 313.554688 185.847656 365.558594 250 365.558594 C 314.152344 365.558594 366.15625 313.554688 366.15625 249.402344 C 366.15625 185.25 314.152344 133.242188 250 133.242188 Z M 250 133.242188 "/>
<path style=" stroke:none;fill-rule:nonzero;fill:rgb(27.843137%,16.862745%,16.078431%);fill-opacity:1;" d="M 250 368.910156 C 184.105469 368.910156 130.488281 315.300781 130.488281 249.402344 C 130.488281 183.5 184.105469 129.890625 250 129.890625 C 315.894531 129.890625 369.511719 183.5 369.511719 249.402344 C 369.511719 315.300781 315.894531 368.910156 250 368.910156 Z M 250 136.597656 C 187.800781 136.597656 137.195312 187.199219 137.195312 249.402344 C 137.195312 311.605469 187.800781 362.207031 250 362.207031 C 312.199219 362.207031 362.804688 311.605469 362.804688 249.402344 C 362.804688 187.199219 312.199219 136.597656 250 136.597656 Z M 250 136.597656 "/>
<path style=" stroke:none;fill-rule:nonzero;fill:rgb(33.72549%,37.254902%,63.137255%);fill-opacity:1;" d="M 250 150.210938 C 195.769531 150.210938 151.804688 194.171875 151.804688 248.40625 C 151.804688 302.636719 195.769531 346.601562 250 346.601562 C 304.230469 346.601562 348.195312 302.636719 348.195312 248.40625 C 348.195312 194.171875 304.230469 150.210938 250 150.210938 Z M 250 150.210938 "/>
<path style=" stroke:none;fill-rule:nonzero;fill:rgb(27.843137%,16.862745%,16.078431%);fill-opacity:1;" d="M 343.039062 224.253906 C 342.015625 224.253906 341.066406 223.589844 340.75 222.558594 C 340.328125 221.183594 339.875 219.824219 339.390625 218.472656 C 337.511719 213.230469 335.148438 208.128906 332.351562 203.292969 C 331.683594 202.152344 332.078125 200.683594 333.222656 200.019531 C 334.367188 199.347656 335.832031 199.75 336.492188 200.898438 C 339.433594 205.980469 341.925781 211.347656 343.898438 216.851562 C 344.40625 218.277344 344.886719 219.703125 345.324219 221.148438 C 345.714844 222.414062 345.003906 223.753906 343.734375 224.144531 C 343.503906 224.21875 343.269531 224.253906 343.039062 224.253906 Z M 343.039062 224.253906 "/>
<path style=" stroke:none;fill-rule:nonzero;fill:rgb(27.843137%,16.862745%,16.078431%);fill-opacity:1;" d="M 250 349.390625 C 194.863281 349.390625 150.007812 304.667969 150.007812 249.699219 C 150.007812 194.726562 194.863281 150.007812 250 150.007812 C 278.621094 150.007812 305.917969 162.269531 324.894531 183.648438 C 326.328125 185.261719 327.714844 186.929688 329.039062 188.636719 C 329.847656 189.679688 329.664062 191.179688 328.625 191.992188 C 327.578125 192.8125 326.074219 192.621094 325.261719 191.570312 C 323.996094 189.949219 322.675781 188.367188 321.3125 186.828125 C 303.246094 166.472656 277.25 154.792969 250 154.792969 C 197.507812 154.792969 154.796875 197.367188 154.796875 249.699219 C 154.796875 302.027344 197.507812 344.601562 250 344.601562 C 302.492188 344.601562 345.203125 302.027344 345.203125 249.699219 C 345.203125 244.933594 344.84375 240.136719 344.136719 235.457031 C 343.941406 234.15625 344.84375 232.933594 346.148438 232.738281 C 347.480469 232.519531 348.679688 233.441406 348.875 234.75 C 349.613281 239.660156 349.992188 244.691406 349.992188 249.699219 C 349.992188 304.667969 305.136719 349.390625 250 349.390625 Z M 250 349.390625 "/>
<path style=" stroke:none;fill-rule:nonzero;fill:rgb(99.607843%,99.215686%,93.72549%);fill-opacity:1;" d="M 305.066406 212.101562 C 306.8125 204.097656 306.050781 194.171875 302.738281 184.234375 C 285.386719 184.234375 272.375 197.242188 272.375 197.242188 C 272.375 197.242188 272.449219 197.328125 272.46875 197.351562 C 272.164062 197.347656 271.867188 197.308594 271.554688 197.308594 L 228.445312 197.308594 C 228.238281 197.308594 228.039062 197.339844 227.832031 197.339844 C 227.847656 197.320312 227.914062 197.242188 227.914062 197.242188 C 227.914062 197.242188 214.898438 184.234375 197.550781 184.234375 C 194.273438 194.066406 193.476562 203.890625 195.15625 211.855469 C 187.601562 219.976562 182.941406 230.839844 182.941406 242.816406 C 182.941406 267.949219 203.3125 288.320312 228.445312 288.320312 L 233.585938 288.320312 C 227.339844 291.714844 222.828125 297.800781 221.644531 305.074219 C 213.40625 306.1875 202.582031 305.9375 197.558594 298.398438 C 188.882812 285.382812 184.542969 285.382812 180.210938 285.382812 C 175.875 285.382812 175.871094 289.722656 180.210938 294.058594 C 184.550781 298.398438 184.550781 298.398438 188.882812 307.074219 C 192.582031 314.464844 202.355469 322.871094 221.265625 319.828125 L 221.265625 336.703125 C 221.265625 338.84375 221.644531 340.875 222.179688 342.84375 C 233.796875 345.609375 253.324219 347.925781 278.054688 342.121094 C 278.46875 340.378906 278.738281 338.582031 278.738281 336.707031 L 278.738281 308.851562 C 278.738281 299.949219 273.726562 292.296875 266.414062 288.320312 L 271.554688 288.320312 C 296.6875 288.320312 317.058594 267.949219 317.058594 242.816406 C 317.058594 230.960938 312.492188 220.203125 305.066406 212.101562 Z M 305.066406 212.101562 "/>
<path style=" stroke:none;fill-rule:nonzero;fill:rgb(27.843137%,16.862745%,16.078431%);fill-opacity:1;" d="M 247.757812 348.128906 C 237.078125 348.128906 228.238281 346.753906 221.621094 345.175781 C 220.765625 344.976562 220.089844 344.320312 219.859375 343.476562 C 219.179688 340.976562 218.863281 338.820312 218.863281 336.707031 L 218.863281 322.570312 C 197.007812 325.03125 188.789062 312.25 186.738281 308.144531 C 182.570312 299.816406 182.570312 299.816406 178.515625 295.753906 C 175.15625 292.394531 173.824219 288.769531 174.945312 286.0625 C 175.753906 284.109375 177.671875 282.988281 180.203125 282.988281 C 186.035156 282.988281 190.832031 284 199.546875 297.066406 C 203.566406 303.09375 212.363281 303.671875 219.632812 302.902344 C 220.734375 298.214844 223.097656 294.015625 226.449219 290.667969 C 200.960938 289.621094 180.546875 268.5625 180.546875 242.816406 C 180.546875 231.117188 184.8125 219.917969 192.582031 211.140625 C 191.117188 202.890625 192.066406 193.125 195.285156 183.476562 C 195.609375 182.5 196.523438 181.839844 197.554688 181.839844 C 213.632812 181.839844 225.964844 192.183594 228.9375 194.914062 L 271.347656 194.914062 C 274.324219 192.183594 286.652344 181.839844 302.734375 181.839844 C 303.761719 181.839844 304.679688 182.5 305.003906 183.476562 C 308.257812 193.234375 309.179688 203.097656 307.644531 211.402344 C 315.265625 220.148438 319.449219 231.261719 319.449219 242.820312 C 319.449219 268.566406 299.03125 289.632812 273.539062 290.675781 C 278.332031 295.453125 281.128906 301.953125 281.128906 308.851562 L 281.128906 336.707031 C 281.128906 338.585938 280.882812 340.539062 280.375 342.675781 C 280.167969 343.5625 279.472656 344.246094 278.589844 344.453125 C 267.15625 347.140625 256.796875 348.128906 247.757812 348.128906 Z M 224.144531 340.84375 C 235.695312 343.414062 253.617188 345.152344 276.019531 340.132812 C 276.234375 338.921875 276.34375 337.792969 276.34375 336.707031 L 276.34375 308.851562 C 276.34375 301.199219 272.101562 294.144531 265.269531 290.425781 C 264.308594 289.90625 263.824219 288.792969 264.09375 287.730469 C 264.359375 286.667969 265.320312 285.925781 266.410156 285.925781 L 271.554688 285.925781 C 295.324219 285.925781 314.664062 266.585938 314.664062 242.816406 C 314.664062 232.050781 310.628906 221.71875 303.296875 213.71875 C 302.769531 213.144531 302.5625 212.351562 302.722656 211.59375 C 304.308594 204.328125 303.691406 195.539062 301 186.675781 C 287.25 187.410156 276.578125 196.609375 274.453125 198.574219 C 274.015625 199.296875 273.28125 199.753906 272.398438 199.753906 C 272.363281 199.753906 271.9375 199.722656 271.90625 199.722656 L 228.445312 199.703125 C 227.71875 199.703125 226.855469 199.382812 226.328125 198.839844 L 226.226562 198.9375 C 226.109375 198.824219 214.550781 187.492188 199.292969 186.671875 C 196.625 195.441406 195.988281 204.148438 197.507812 211.359375 C 197.667969 212.121094 197.445312 212.914062 196.914062 213.484375 C 189.445312 221.507812 185.335938 231.925781 185.335938 242.816406 C 185.335938 266.585938 204.675781 285.925781 228.445312 285.925781 L 233.585938 285.925781 C 234.679688 285.925781 235.636719 286.667969 235.902344 287.730469 C 236.175781 288.792969 235.691406 289.902344 234.726562 290.425781 C 228.953125 293.558594 225.042969 299.042969 224.003906 305.464844 C 223.832031 306.507812 223.007812 307.3125 221.960938 307.453125 C 209.199219 309.167969 200.078125 306.503906 195.5625 299.734375 C 187.597656 287.789062 184.007812 287.789062 180.203125 287.789062 C 179.546875 287.789062 179.34375 287.941406 179.339844 287.941406 C 179.21875 288.25 179.542969 290.023438 181.894531 292.378906 C 186.507812 296.988281 186.675781 297.324219 191.019531 306.015625 C 192.789062 309.539062 200.175781 320.828125 220.875 317.472656 C 221.582031 317.371094 222.277344 317.5625 222.8125 318.011719 C 223.34375 318.472656 223.65625 319.132812 223.65625 319.839844 L 223.65625 336.714844 C 223.65625 338 223.8125 339.339844 224.144531 340.84375 Z M 224.144531 340.84375 "/>
<path style=" stroke:none;fill-rule:nonzero;fill:rgb(99.607843%,99.215686%,93.72549%);fill-opacity:1;" d="M 299.992188 256.523438 C 295.683594 266.074219 286.21875 274.015625 269.558594 275.347656 "/>
<path style=" stroke:none;fill-rule:nonzero;fill:rgb(27.843137%,16.862745%,16.078431%);fill-opacity:1;" d="M 269.558594 276.546875 C 268.941406 276.546875 268.417969 276.066406 268.363281 275.445312 C 268.3125 274.785156 268.800781 274.207031 269.460938 274.15625 C 287.6875 272.695312 295.527344 263.488281 298.902344 256.03125 C 299.179688 255.421875 299.882812 255.152344 300.488281 255.433594 C 301.085938 255.703125 301.359375 256.410156 301.085938 257.011719 C 295.945312 268.398438 284.785156 275.328125 269.652344 276.542969 C 269.625 276.546875 269.589844 276.546875 269.558594 276.546875 Z M 269.558594 276.546875 "/>
<path style=" stroke:none;fill-rule:nonzero;fill:rgb(99.607843%,99.215686%,93.72549%);fill-opacity:1;" d="M 302.492188 237.59375 C 303.023438 241.199219 303.015625 245.027344 302.351562 248.8125 "/>
<path style=" stroke:none;fill-rule:nonzero;fill:rgb(27.843137%,16.862745%,16.078431%);fill-opacity:1;" d="M 302.355469 250.007812 C 302.28125 250.007812 302.214844 250.003906 302.144531 249.992188 C 301.492188 249.878906 301.054688 249.257812 301.171875 248.605469 C 301.789062 245.089844 301.835938 241.339844 301.308594 237.765625 C 301.210938 237.113281 301.664062 236.5 302.316406 236.410156 C 302.972656 236.316406 303.582031 236.761719 303.675781 237.421875 C 304.25 241.296875 304.199219 245.199219 303.527344 249.019531 C 303.433594 249.601562 302.925781 250.007812 302.355469 250.007812 Z M 302.355469 250.007812 "/>
<path style=" stroke:none;fill-rule:nonzero;fill:rgb(99.607843%,99.215686%,93.72549%);fill-opacity:1;" d="M 293.507812 220.660156 C 296.539062 222.820312 298.996094 226.308594 300.636719 230.503906 "/>
<path style=" stroke:none;fill-rule:nonzero;fill:rgb(27.843137%,16.862745%,16.078431%);fill-opacity:1;" d="M 300.636719 231.707031 C 300.15625 231.707031 299.707031 231.414062 299.519531 230.945312 C 297.917969 226.84375 295.601562 223.625 292.8125 221.644531 C 292.277344 221.261719 292.148438 220.511719 292.53125 219.972656 C 292.917969 219.429688 293.660156 219.308594 294.203125 219.683594 C 297.375 221.945312 299.984375 225.539062 301.75 230.074219 C 301.992188 230.691406 301.683594 231.382812 301.070312 231.625 C 300.925781 231.679688 300.785156 231.707031 300.636719 231.707031 Z M 300.636719 231.707031 "/>
</g>
</svg>
