<?xml version="1.0" encoding="UTF-8"?>
<svg xmlns="http://www.w3.org/2000/svg" xmlns:xlink="http://www.w3.org/1999/xlink" width="500pt" height="500pt" viewBox="0 0 500 500" version="1.1">
<g id="surface1026353">
<path style="fill-rule:nonzero;fill:rgb(94.509804%,73.72549%,9.803922%);fill-opacity:1;stroke-width:10;stroke-linecap:butt;stroke-linejoin:round;stroke:rgb(7.45098%,11.764706%,14.509804%);stroke-opacity:1;stroke-miterlimit:10;" d="M 134.159601 22.360171 C 134.159601 23.310211 133.389298 24.080514 132.440685 24.080514 C 131.490645 24.080514 130.720342 23.310211 130.720342 22.360171 C 130.720342 21.410131 131.490645 20.639829 132.440685 20.639829 C 133.389298 20.639829 134.159601 21.410131 134.159601 22.360171 Z M 134.159601 22.360171 " transform="matrix(2.738372,0,0,2.738372,14.5,14.5)"/>
<path style="fill-rule:nonzero;fill:rgb(90.196078%,92.941176%,71.764706%);fill-opacity:1;stroke-width:10;stroke-linecap:butt;stroke-linejoin:round;stroke:rgb(7.45098%,11.764706%,14.509804%);stroke-opacity:1;stroke-miterlimit:10;" d="M 149.639829 86 C 149.639829 121.147193 121.147193 149.639829 86 149.639829 C 50.852807 149.639829 22.360171 121.147193 22.360171 86 C 22.360171 50.852807 50.852807 22.360171 86 22.360171 C 121.147193 22.360171 149.639829 50.852807 149.639829 86 Z M 149.639829 86 " transform="matrix(2.738372,0,0,2.738372,14.5,14.5)"/>
<path style="fill-rule:nonzero;fill:rgb(94.509804%,73.72549%,9.803922%);fill-opacity:1;stroke-width:10;stroke-linecap:butt;stroke-linejoin:round;stroke:rgb(7.45098%,11.764706%,14.509804%);stroke-opacity:1;stroke-miterlimit:10;" d="M 149.639829 25.799429 C 149.639829 29.599589 146.560045 32.679372 142.759886 32.679372 C 138.959727 32.679372 135.879943 29.599589 135.879943 25.799429 C 135.879943 22.000697 138.959727 18.919486 142.759886 18.919486 C 146.560045 18.919486 149.639829 22.000697 149.639829 25.799429 Z M 149.639829 25.799429 " transform="matrix(2.738372,0,0,2.738372,14.5,14.5)"/>
<path style="fill-rule:nonzero;fill:rgb(53.333333%,68.235294%,27.058824%);fill-opacity:1;stroke-width:10;stroke-linecap:butt;stroke-linejoin:round;stroke:rgb(7.45098%,11.764706%,14.509804%);stroke-opacity:1;stroke-miterlimit:10;" d="M 153.080514 41.279658 C 153.080514 43.179737 151.539908 44.720342 149.639829 44.720342 C 147.739749 44.720342 146.200571 43.179737 146.200571 41.279658 C 146.200571 39.379578 147.739749 37.840399 149.639829 37.840399 C 151.539908 37.840399 153.080514 39.379578 153.080514 41.279658 Z M 153.080514 41.279658 " transform="matrix(2.738372,0,0,2.738372,14.5,14.5)"/>
<path style="fill-rule:nonzero;fill:rgb(98.431373%,80.392157%,34.901961%);fill-opacity:1;stroke-width:10;stroke-linecap:butt;stroke-linejoin:round;stroke:rgb(7.45098%,11.764706%,14.509804%);stroke-opacity:1;stroke-miterlimit:10;" d="M 142.759886 130.720342 C 142.759886 132.620422 141.219281 134.159601 139.320628 134.159601 C 137.420548 134.159601 135.879943 132.620422 135.879943 130.720342 C 135.879943 128.820263 137.420548 127.279658 139.320628 127.279658 C 141.219281 127.279658 142.759886 128.820263 142.759886 130.720342 Z M 32.679372 108.360171 C 32.679372 112.16033 29.599589 115.240114 25.799429 115.240114 C 22.000697 115.240114 18.919486 112.16033 18.919486 108.360171 C 18.919486 104.560012 22.000697 101.480228 25.799429 101.480228 C 29.599589 101.480228 32.679372 104.560012 32.679372 108.360171 Z M 32.679372 108.360171 " transform="matrix(2.738372,0,0,2.738372,14.5,14.5)"/>
<path style="fill-rule:nonzero;fill:rgb(53.333333%,68.235294%,27.058824%);fill-opacity:1;stroke-width:10;stroke-linecap:butt;stroke-linejoin:round;stroke:rgb(7.45098%,11.764706%,14.509804%);stroke-opacity:1;stroke-miterlimit:10;" d="M 46.440685 149.639829 C 46.440685 151.539908 44.90008 153.080514 43 153.080514 C 41.09992 153.080514 39.559315 151.539908 39.559315 149.639829 C 39.559315 147.739749 41.09992 146.200571 43 146.200571 C 44.90008 146.200571 46.440685 147.739749 46.440685 149.639829 Z M 46.440685 149.639829 " transform="matrix(2.738372,0,0,2.738372,14.5,14.5)"/>
<path style="fill-rule:nonzero;fill:rgb(100%,100%,100%);fill-opacity:1;stroke-width:10;stroke-linecap:butt;stroke-linejoin:round;stroke:rgb(7.45098%,11.764706%,14.509804%);stroke-opacity:1;stroke-miterlimit:10;" d="M 36.120057 88.580514 C 36.120057 90.954187 34.194301 92.879943 31.820628 92.879943 C 29.445528 92.879943 27.519772 90.954187 27.519772 88.580514 C 27.519772 86.205414 29.445528 84.279658 31.820628 84.279658 C 34.194301 84.279658 36.120057 86.205414 36.120057 88.580514 Z M 139.320628 57.620057 C 139.320628 59.045117 138.165174 60.200571 136.740114 60.200571 C 135.315054 60.200571 134.159601 59.045117 134.159601 57.620057 C 134.159601 56.194997 135.315054 55.039544 136.740114 55.039544 C 138.165174 55.039544 139.320628 56.194997 139.320628 57.620057 Z M 139.320628 57.620057 " transform="matrix(2.738372,0,0,2.738372,14.5,14.5)"/>
<path style="fill-rule:nonzero;fill:rgb(45.098039%,69.803922%,89.803922%);fill-opacity:1;stroke-width:10;stroke-linecap:butt;stroke-linejoin:round;stroke:rgb(7.45098%,11.764706%,14.509804%);stroke-opacity:1;stroke-miterlimit:10;" d="M 60.200571 124.355361 C 53.320628 124.355361 47.644639 118.679372 47.644639 111.799429 L 47.644639 60.200571 C 47.644639 53.320628 53.320628 47.644639 60.200571 47.644639 L 111.799429 47.644639 C 118.679372 47.644639 124.355361 53.320628 124.355361 60.200571 L 124.355361 111.799429 C 124.355361 118.679372 118.679372 124.355361 111.799429 124.355361 Z M 60.200571 124.355361 " transform="matrix(2.738372,0,0,2.738372,14.5,14.5)"/>
<path style="fill-rule:nonzero;fill:rgb(27.843137%,16.862745%,16.078431%);fill-opacity:1;stroke-width:10;stroke-linecap:butt;stroke-linejoin:round;stroke:rgb(7.45098%,11.764706%,14.509804%);stroke-opacity:1;stroke-miterlimit:10;" d="M 111.799429 48.848593 L 60.200571 48.848593 C 54.008194 48.848593 48.848593 54.008194 48.848593 60.200571 L 48.848593 111.799429 C 48.848593 117.991806 54.008194 123.151407 60.200571 123.151407 L 111.799429 123.151407 C 117.991806 123.151407 123.151407 117.991806 123.151407 111.799429 L 123.151407 60.200571 C 123.151407 54.008194 117.991806 48.848593 111.799429 48.848593 M 111.799429 46.440685 C 119.368365 46.440685 125.559315 52.631635 125.559315 60.200571 L 125.559315 111.799429 C 125.559315 119.368365 119.368365 125.559315 111.799429 125.559315 L 60.200571 125.559315 C 52.631635 125.559315 46.440685 119.368365 46.440685 111.799429 L 46.440685 60.200571 C 46.440685 52.631635 52.631635 46.440685 60.200571 46.440685 Z M 111.799429 46.440685 " transform="matrix(2.738372,0,0,2.738372,14.5,14.5)"/>
<path style="fill-rule:nonzero;fill:rgb(99.215686%,98.823529%,93.333333%);fill-opacity:1;stroke-width:10;stroke-linecap:butt;stroke-linejoin:round;stroke:rgb(7.45098%,11.764706%,14.509804%);stroke-opacity:1;stroke-miterlimit:10;" d="M 117.820628 82.388137 L 117.820628 110.080514 C 117.820628 114.379943 114.379943 117.820628 110.080514 117.820628 L 61.919486 117.820628 C 57.620057 117.820628 54.179372 114.379943 54.179372 110.080514 L 54.179372 61.919486 C 54.179372 57.620057 57.620057 54.179372 61.919486 54.179372 L 110.080514 54.179372 C 114.379943 54.179372 117.820628 57.620057 117.820628 61.919486 L 117.820628 82.388137 " transform="matrix(2.738372,0,0,2.738372,14.5,14.5)"/>
<path style="fill-rule:nonzero;fill:rgb(27.843137%,16.862745%,16.078431%);fill-opacity:1;stroke-width:10;stroke-linecap:butt;stroke-linejoin:round;stroke:rgb(7.45098%,11.764706%,14.509804%);stroke-opacity:1;stroke-miterlimit:10;" d="M 117.820628 81.527966 C 117.30424 81.527966 116.960456 81.184183 116.960456 80.667795 L 116.960456 73.960456 C 116.960456 73.444068 117.30424 73.100285 117.820628 73.100285 C 118.335589 73.100285 118.679372 73.444068 118.679372 73.960456 L 118.679372 80.667795 C 118.679372 81.184183 118.335589 81.527966 117.820628 81.527966 Z M 117.820628 69.659601 C 117.30424 69.659601 116.960456 69.315817 116.960456 68.799429 L 116.960456 65.360171 C 116.960456 64.843783 117.30424 64.5 117.820628 64.5 C 118.335589 64.5 118.679372 64.843783 118.679372 65.360171 L 118.679372 68.799429 C 118.679372 69.315817 118.335589 69.659601 117.820628 69.659601 Z M 117.820628 69.659601 " transform="matrix(2.738372,0,0,2.738372,14.5,14.5)"/>
<path style="fill-rule:nonzero;fill:rgb(27.843137%,16.862745%,16.078431%);fill-opacity:1;stroke-width:10;stroke-linecap:butt;stroke-linejoin:round;stroke:rgb(7.45098%,11.764706%,14.509804%);stroke-opacity:1;stroke-miterlimit:10;" d="M 110.080514 118.679372 L 61.919486 118.679372 C 57.103669 118.679372 53.320628 114.896331 53.320628 110.080514 L 53.320628 61.919486 C 53.320628 57.103669 57.103669 53.320628 61.919486 53.320628 L 105.608479 53.320628 C 106.123441 53.320628 106.46865 53.664411 106.46865 54.179372 C 106.46865 54.69576 106.123441 55.039544 105.608479 55.039544 L 61.919486 55.039544 C 58.136445 55.039544 55.039544 58.136445 55.039544 61.919486 L 55.039544 110.080514 C 55.039544 113.863555 58.136445 116.960456 61.919486 116.960456 L 110.080514 116.960456 C 113.863555 116.960456 116.960456 113.863555 116.960456 110.080514 L 116.960456 85.312434 C 116.960456 84.796046 117.30424 84.452262 117.820628 84.452262 C 118.335589 84.452262 118.679372 84.796046 118.679372 85.312434 L 118.679372 110.080514 C 118.679372 114.896331 114.896331 118.679372 110.080514 118.679372 Z M 110.080514 118.679372 " transform="matrix(2.738372,0,0,2.738372,14.5,14.5)"/>
<path style="fill-rule:nonzero;fill:rgb(14.901961%,54.509804%,93.72549%);fill-opacity:1;stroke-width:10;stroke-linecap:butt;stroke-linejoin:round;stroke:rgb(7.45098%,11.764706%,14.509804%);stroke-opacity:1;stroke-miterlimit:10;" d="M 101.996616 78.432491 C 101.996616 78.947452 101.996616 79.292662 101.996616 79.636445 C 101.996616 91.159601 93.396331 104.575703 77.57232 104.575703 C 72.583897 104.575703 68.111863 103.027966 64.327395 100.620057 C 65.016388 100.792662 65.703954 100.792662 66.391521 100.792662 C 70.348593 100.792662 74.131635 99.416103 77.055932 97.008194 C 73.271464 97.008194 70.003384 94.42768 68.972034 90.988422 C 69.488422 91.159601 70.003384 91.159601 70.519772 91.159601 C 71.207338 91.159601 72.067509 90.988422 72.756502 90.815817 C 68.799429 89.955646 65.876559 86.516388 65.876559 82.215532 C 65.876559 82.044354 65.876559 82.044354 65.876559 82.044354 C 67.080514 82.559315 68.455646 83.075703 69.832205 83.075703 C 67.595475 81.355361 66.047738 78.776274 66.047738 75.679372 C 66.047738 73.960456 66.564126 72.583897 67.251692 71.207338 C 71.552548 76.539544 77.743498 79.980228 84.96865 80.324011 C 84.796046 79.636445 84.796046 78.947452 84.796046 78.259886 C 84.796046 73.444068 88.580514 69.488422 93.396331 69.488422 C 95.975418 69.488422 98.212148 70.519772 99.759886 72.240114 C 101.824011 71.896331 103.544354 71.207338 105.264696 70.175989 C 104.575703 72.240114 103.200571 73.960456 101.480228 74.991806 C 103.200571 74.820628 104.919486 74.30424 106.46865 73.616673 C 105.435874 75.335589 103.888137 76.883327 101.996616 78.432491 Z M 101.996616 78.432491 " transform="matrix(2.738372,0,0,2.738372,14.5,14.5)"/>
<path style="fill-rule:nonzero;fill:rgb(27.843137%,16.862745%,16.078431%);fill-opacity:1;stroke-width:10;stroke-linecap:butt;stroke-linejoin:round;stroke:rgb(7.45098%,11.764706%,14.509804%);stroke-opacity:1;stroke-miterlimit:10;" d="M 77.743498 105.092091 C 72.92768 105.092091 68.111863 103.715532 64.156217 100.96384 C 63.812434 100.792662 63.639829 100.276274 63.812434 99.932491 C 63.983612 99.588708 64.327395 99.243498 64.672605 99.416103 C 68.455646 99.932491 71.896331 99.07232 74.991806 97.179372 C 71.896331 96.320628 69.315817 93.911292 68.455646 90.815817 C 68.284468 90.472034 68.455646 90.128251 68.628251 89.955646 C 68.799429 89.784468 69.144639 89.611863 69.488422 89.611863 C 67.080514 87.891521 65.360171 84.96865 65.360171 81.700571 C 65.360171 81.355361 65.53135 81.011578 65.703954 80.840399 C 66.047738 80.667795 66.220342 80.667795 66.564126 80.840399 C 66.735304 81.011578 67.080514 81.011578 67.251692 81.184183 C 66.047738 79.46384 65.360171 77.57232 65.360171 75.335589 C 65.360171 73.616673 65.876559 71.896331 66.564126 70.519772 C 66.735304 70.348593 66.907909 70.175989 67.251692 70.003384 C 67.595475 70.003384 67.76808 70.175989 67.940685 70.348593 C 71.896331 75.335589 77.743498 78.603669 83.935874 79.120057 C 83.935874 78.776274 83.935874 78.432491 83.935874 78.088708 C 83.935874 72.756502 88.235304 68.455646 93.396331 68.455646 C 95.80424 68.455646 98.212148 69.488422 99.932491 71.207338 C 101.651407 70.863555 103.200571 70.175989 104.748308 69.315817 C 105.092091 69.144639 105.435874 69.144639 105.779658 69.315817 C 106.123441 69.488422 106.123441 69.832205 106.123441 70.175989 C 105.779658 71.379943 105.264696 72.411292 104.575703 73.271464 C 105.092091 73.100285 105.608479 72.92768 106.123441 72.583897 C 106.46865 72.411292 106.812434 72.583897 107.156217 72.756502 C 107.327395 73.100285 107.5 73.444068 107.156217 73.787852 C 105.952262 75.508194 104.575703 77.055932 103.027966 78.259886 C 103.027966 78.432491 103.027966 78.776274 103.027966 78.947452 C 103.200571 92.019772 93.567509 105.092091 77.743498 105.092091 Z M 68.111863 101.307623 C 71.207338 102.684183 74.475418 103.544354 77.916103 103.544354 C 92.707338 103.544354 101.480228 91.332205 101.480228 79.46384 C 101.480228 79.120057 101.480228 78.776274 101.480228 78.432491 C 101.480228 78.088708 101.651407 77.916103 101.824011 77.743498 C 102.684183 77.055932 103.371749 76.368365 104.059315 75.679372 C 103.371749 75.851977 102.511578 76.024582 101.651407 76.19576 C 101.307623 76.19576 100.792662 76.024582 100.792662 75.679372 C 100.620057 75.335589 100.792662 74.820628 101.136445 74.648023 C 101.996616 74.131635 102.855361 73.271464 103.544354 72.411292 C 102.511578 72.92768 101.307623 73.271464 100.103669 73.444068 C 99.759886 73.444068 99.588708 73.444068 99.243498 73.100285 C 97.868365 71.552548 95.80424 70.519772 93.567509 70.519772 C 89.26808 70.519772 85.827395 74.131635 85.827395 78.432491 C 85.827395 79.120057 85.827395 79.636445 86 80.324011 C 86 80.667795 86 80.840399 85.827395 81.011578 C 85.656217 81.184183 85.312434 81.355361 85.139829 81.355361 C 78.432491 81.011578 72.067509 77.916103 67.595475 72.92768 C 67.251692 73.787852 67.080514 74.820628 67.080514 75.851977 C 67.080514 78.432491 68.455646 81.011578 70.519772 82.388137 C 70.863555 82.559315 71.03616 83.075703 70.863555 83.419486 C 70.692377 83.764696 70.348593 84.108479 70.003384 83.935874 C 68.972034 83.935874 68.111863 83.764696 67.080514 83.419486 C 67.595475 86.687566 70.003384 89.26808 73.100285 89.955646 C 73.444068 89.955646 73.787852 90.299429 73.787852 90.815817 C 73.787852 91.159601 73.616673 91.503384 73.100285 91.675989 C 72.240114 91.848593 71.207338 92.019772 70.348593 92.019772 C 71.723726 94.600285 74.131635 96.148023 77.055932 96.320628 C 77.399715 96.320628 77.743498 96.491806 77.916103 96.835589 C 78.088708 97.179372 77.916103 97.524582 77.57232 97.868365 C 74.991806 99.588708 71.552548 100.96384 68.111863 101.307623 Z M 68.111863 101.307623 " transform="matrix(2.738372,0,0,2.738372,14.5,14.5)"/>
<path style=" stroke:none;fill-rule:nonzero;fill:rgb(40%,40%,40%);fill-opacity:1;" d="M 377.171875 71.019531 C 374.570312 71.019531 372.460938 73.128906 372.460938 75.730469 C 372.460938 78.332031 374.570312 80.441406 377.171875 80.441406 C 379.769531 80.441406 381.878906 78.332031 381.878906 75.730469 C 381.878906 73.128906 379.769531 71.019531 377.171875 71.019531 Z M 377.171875 71.019531 "/>
<path style=" stroke:none;fill-rule:nonzero;fill:rgb(100%,100%,100%);fill-opacity:1;" d="M 250 75.730469 C 153.753906 75.730469 75.730469 153.753906 75.730469 250 C 75.730469 346.246094 153.753906 424.269531 250 424.269531 C 346.246094 424.269531 424.269531 346.246094 424.269531 250 C 424.269531 153.753906 346.246094 75.730469 250 75.730469 Z M 250 75.730469 "/>
<path style=" stroke:none;fill-rule:nonzero;fill:rgb(40%,40%,40%);fill-opacity:1;" d="M 405.429688 66.308594 C 395.023438 66.308594 386.589844 74.746094 386.589844 85.148438 C 386.589844 95.554688 395.023438 103.988281 405.429688 103.988281 C 415.835938 103.988281 424.269531 95.554688 424.269531 85.148438 C 424.269531 74.746094 415.835938 66.308594 405.429688 66.308594 Z M 405.429688 66.308594 "/>
<path style=" stroke:none;fill-rule:nonzero;fill:rgb(10.196078%,73.72549%,61.176471%);fill-opacity:1;" d="M 424.269531 118.121094 C 419.066406 118.121094 414.851562 122.335938 414.851562 127.539062 C 414.851562 132.742188 419.066406 136.960938 424.269531 136.960938 C 429.472656 136.960938 433.691406 132.742188 433.691406 127.539062 C 433.691406 122.335938 429.472656 118.121094 424.269531 118.121094 Z M 424.269531 118.121094 "/>
<path style=" stroke:none;fill-rule:nonzero;fill:rgb(60.784314%,34.901961%,71.372549%);fill-opacity:1;" d="M 396.011719 363.039062 C 390.808594 363.039062 386.589844 367.257812 386.589844 372.460938 C 386.589844 377.664062 390.808594 381.878906 396.011719 381.878906 C 401.210938 381.878906 405.429688 377.664062 405.429688 372.460938 C 405.429688 367.257812 401.210938 363.039062 396.011719 363.039062 Z M 85.148438 292.390625 C 74.746094 292.390625 66.308594 300.824219 66.308594 311.230469 C 66.308594 321.636719 74.746094 330.070312 85.148438 330.070312 C 95.554688 330.070312 103.988281 321.636719 103.988281 311.230469 C 103.988281 300.824219 95.554688 292.390625 85.148438 292.390625 Z M 85.148438 292.390625 "/>
<path style=" stroke:none;fill-rule:nonzero;fill:rgb(10.196078%,73.72549%,61.176471%);fill-opacity:1;" d="M 132.25 414.851562 C 127.046875 414.851562 122.828125 419.066406 122.828125 424.269531 C 122.828125 429.472656 127.046875 433.691406 132.25 433.691406 C 137.453125 433.691406 141.671875 429.472656 141.671875 424.269531 C 141.671875 419.066406 137.453125 414.851562 132.25 414.851562 Z M 132.25 414.851562 "/>
<path style=" stroke:none;fill-rule:nonzero;fill:rgb(80%,80%,80%);fill-opacity:1;" d="M 101.636719 245.289062 C 95.132812 245.289062 89.859375 250.5625 89.859375 257.066406 C 89.859375 263.566406 95.132812 268.839844 101.636719 268.839844 C 108.136719 268.839844 113.410156 263.566406 113.410156 257.066406 C 113.410156 250.5625 108.136719 245.289062 101.636719 245.289062 Z M 388.945312 165.21875 C 385.042969 165.21875 381.878906 168.382812 381.878906 172.285156 C 381.878906 176.1875 385.042969 179.351562 388.945312 179.351562 C 392.847656 179.351562 396.011719 176.1875 396.011719 172.285156 C 396.011719 168.382812 392.847656 165.21875 388.945312 165.21875 Z M 388.945312 165.21875 "/>
<path style=" stroke:none;fill-rule:nonzero;fill:rgb(45.098039%,69.803922%,89.803922%);fill-opacity:1;" d="M 179.351562 355.03125 C 160.511719 355.03125 144.96875 339.488281 144.96875 320.648438 L 144.96875 179.351562 C 144.96875 160.511719 160.511719 144.96875 179.351562 144.96875 L 320.648438 144.96875 C 339.488281 144.96875 355.03125 160.511719 355.03125 179.351562 L 355.03125 320.648438 C 355.03125 339.488281 339.488281 355.03125 320.648438 355.03125 Z M 179.351562 355.03125 "/>
<path style=" stroke:none;fill-rule:nonzero;fill:rgb(27.843137%,16.862745%,16.078431%);fill-opacity:1;" d="M 320.648438 148.265625 C 337.605469 148.265625 351.734375 162.394531 351.734375 179.351562 L 351.734375 320.648438 C 351.734375 337.605469 337.605469 351.734375 320.648438 351.734375 L 179.351562 351.734375 C 162.394531 351.734375 148.265625 337.605469 148.265625 320.648438 L 148.265625 179.351562 C 148.265625 162.394531 162.394531 148.265625 179.351562 148.265625 L 320.648438 148.265625 M 320.648438 141.671875 L 179.351562 141.671875 C 158.625 141.671875 141.671875 158.625 141.671875 179.351562 L 141.671875 320.648438 C 141.671875 341.375 158.625 358.328125 179.351562 358.328125 L 320.648438 358.328125 C 341.375 358.328125 358.328125 341.375 358.328125 320.648438 L 358.328125 179.351562 C 358.328125 158.625 341.375 141.671875 320.648438 141.671875 Z M 320.648438 141.671875 "/>
<path style=" stroke:none;fill-rule:nonzero;fill:rgb(99.215686%,98.823529%,93.333333%);fill-opacity:1;" d="M 337.136719 240.109375 L 337.136719 315.941406 C 337.136719 327.714844 327.714844 337.136719 315.941406 337.136719 L 184.058594 337.136719 C 172.285156 337.136719 162.863281 327.714844 162.863281 315.941406 L 162.863281 184.058594 C 162.863281 172.285156 172.285156 162.863281 184.058594 162.863281 L 315.941406 162.863281 C 327.714844 162.863281 337.136719 172.285156 337.136719 184.058594 L 337.136719 240.109375 "/>
<path style=" stroke:none;fill-rule:nonzero;fill:rgb(27.843137%,16.862745%,16.078431%);fill-opacity:1;" d="M 337.136719 237.753906 C 335.722656 237.753906 334.78125 236.8125 334.78125 235.398438 L 334.78125 217.03125 C 334.78125 215.617188 335.722656 214.675781 337.136719 214.675781 C 338.546875 214.675781 339.488281 215.617188 339.488281 217.03125 L 339.488281 235.398438 C 339.488281 236.8125 338.546875 237.753906 337.136719 237.753906 Z M 337.136719 205.253906 C 335.722656 205.253906 334.78125 204.3125 334.78125 202.898438 L 334.78125 193.480469 C 334.78125 192.066406 335.722656 191.125 337.136719 191.125 C 338.546875 191.125 339.488281 192.066406 339.488281 193.480469 L 339.488281 202.898438 C 339.488281 204.3125 338.546875 205.253906 337.136719 205.253906 Z M 337.136719 205.253906 "/>
<path style=" stroke:none;fill-rule:nonzero;fill:rgb(27.843137%,16.862745%,16.078431%);fill-opacity:1;" d="M 315.941406 339.488281 L 184.058594 339.488281 C 170.871094 339.488281 160.511719 329.128906 160.511719 315.941406 L 160.511719 184.058594 C 160.511719 170.871094 170.871094 160.511719 184.058594 160.511719 L 303.695312 160.511719 C 305.105469 160.511719 306.050781 161.453125 306.050781 162.863281 C 306.050781 164.277344 305.105469 165.21875 303.695312 165.21875 L 184.058594 165.21875 C 173.699219 165.21875 165.21875 173.699219 165.21875 184.058594 L 165.21875 315.941406 C 165.21875 326.300781 173.699219 334.78125 184.058594 334.78125 L 315.941406 334.78125 C 326.300781 334.78125 334.78125 326.300781 334.78125 315.941406 L 334.78125 248.117188 C 334.78125 246.703125 335.722656 245.761719 337.136719 245.761719 C 338.546875 245.761719 339.488281 246.703125 339.488281 248.117188 L 339.488281 315.941406 C 339.488281 329.128906 329.128906 339.488281 315.941406 339.488281 Z M 315.941406 339.488281 "/>
<path style=" stroke:none;fill-rule:nonzero;fill:rgb(14.901961%,54.509804%,93.72549%);fill-opacity:1;" d="M 306.050781 216.089844 C 301.808594 217.972656 297.101562 219.386719 292.390625 219.855469 C 297.101562 217.03125 300.867188 212.320312 302.753906 206.667969 C 298.042969 209.492188 293.332031 211.378906 287.679688 212.320312 C 283.441406 207.609375 277.316406 204.785156 270.253906 204.785156 C 257.066406 204.785156 246.703125 215.617188 246.703125 228.804688 C 246.703125 230.6875 246.703125 232.574219 247.175781 234.457031 C 227.390625 233.515625 210.4375 224.09375 198.660156 209.492188 C 196.777344 213.261719 195.363281 217.03125 195.363281 221.738281 C 195.363281 230.21875 199.601562 237.28125 205.726562 241.992188 C 201.957031 241.992188 198.191406 240.578125 194.894531 239.167969 C 194.894531 239.167969 194.894531 239.167969 194.894531 239.636719 C 194.894531 251.414062 202.898438 260.832031 213.734375 263.1875 C 211.847656 263.660156 209.492188 264.128906 207.609375 264.128906 C 206.195312 264.128906 204.785156 264.128906 203.371094 263.660156 C 206.195312 273.078125 215.144531 280.144531 225.507812 280.144531 C 217.5 286.738281 207.140625 290.507812 196.304688 290.507812 C 194.421875 290.507812 192.539062 290.507812 190.652344 290.035156 C 201.015625 296.628906 213.261719 300.867188 226.921875 300.867188 C 270.253906 300.867188 293.804688 264.128906 293.804688 232.574219 C 293.804688 231.632812 293.804688 230.6875 293.804688 229.277344 C 298.984375 225.035156 303.222656 220.796875 306.050781 216.089844 Z M 306.050781 216.089844 "/>
<path style=" stroke:none;fill-rule:nonzero;fill:rgb(27.843137%,16.862745%,16.078431%);fill-opacity:1;" d="M 227.390625 302.28125 C 214.203125 302.28125 201.015625 298.511719 190.183594 290.976562 C 189.242188 290.507812 188.769531 289.09375 189.242188 288.152344 C 189.710938 287.210938 190.652344 286.265625 191.597656 286.738281 C 201.957031 288.152344 211.378906 285.796875 219.855469 280.613281 C 211.378906 278.261719 204.3125 271.664062 201.957031 263.1875 C 201.488281 262.246094 201.957031 261.304688 202.429688 260.832031 C 202.898438 260.363281 203.84375 259.890625 204.785156 259.890625 C 198.191406 255.179688 193.480469 247.175781 193.480469 238.226562 C 193.480469 237.28125 193.949219 236.339844 194.421875 235.871094 C 195.363281 235.398438 195.835938 235.398438 196.777344 235.871094 C 197.246094 236.339844 198.191406 236.339844 198.660156 236.8125 C 195.363281 232.101562 193.480469 226.921875 193.480469 220.796875 C 193.480469 216.089844 194.894531 211.378906 196.777344 207.609375 C 197.246094 207.140625 197.71875 206.667969 198.660156 206.195312 C 199.601562 206.195312 200.074219 206.667969 200.546875 207.140625 C 211.378906 220.796875 227.390625 229.746094 244.347656 231.160156 C 244.347656 230.21875 244.347656 229.277344 244.347656 228.335938 C 244.347656 213.734375 256.121094 201.957031 270.253906 201.957031 C 276.847656 201.957031 283.441406 204.785156 288.152344 209.492188 C 292.859375 208.550781 297.101562 206.667969 301.339844 204.3125 C 302.28125 203.84375 303.222656 203.84375 304.164062 204.3125 C 305.105469 204.785156 305.105469 205.726562 305.105469 206.667969 C 304.164062 209.964844 302.753906 212.789062 300.867188 215.144531 C 302.28125 214.675781 303.695312 214.203125 305.105469 213.261719 C 306.050781 212.789062 306.992188 213.261719 307.933594 213.734375 C 308.402344 214.675781 308.875 215.617188 307.933594 216.558594 C 304.636719 221.269531 300.867188 225.507812 296.628906 228.804688 C 296.628906 229.277344 296.628906 230.21875 296.628906 230.6875 C 297.101562 266.484375 270.722656 302.28125 227.390625 302.28125 Z M 201.015625 291.917969 C 209.492188 295.6875 218.441406 298.042969 227.863281 298.042969 C 268.367188 298.042969 292.390625 264.601562 292.390625 232.101562 C 292.390625 231.160156 292.390625 230.21875 292.390625 229.277344 C 292.390625 228.335938 292.859375 227.863281 293.332031 227.390625 C 295.6875 225.507812 297.570312 223.625 299.453125 221.738281 C 297.570312 222.210938 295.214844 222.683594 292.859375 223.152344 C 291.917969 223.152344 290.507812 222.683594 290.507812 221.738281 C 290.035156 220.796875 290.507812 219.386719 291.449219 218.914062 C 293.804688 217.5 296.15625 215.144531 298.042969 212.789062 C 295.214844 214.203125 291.917969 215.144531 288.621094 215.617188 C 287.679688 215.617188 287.210938 215.617188 286.265625 214.675781 C 282.5 210.4375 276.847656 207.609375 270.722656 207.609375 C 258.949219 207.609375 249.527344 217.5 249.527344 229.277344 C 249.527344 231.160156 249.527344 232.574219 250 234.457031 C 250 235.398438 250 235.871094 249.527344 236.339844 C 249.058594 236.8125 248.117188 237.28125 247.644531 237.28125 C 229.277344 236.339844 211.847656 227.863281 199.601562 214.203125 C 198.660156 216.558594 198.191406 219.386719 198.191406 222.210938 C 198.191406 229.277344 201.957031 236.339844 207.609375 240.109375 C 208.550781 240.578125 209.023438 241.992188 208.550781 242.933594 C 208.082031 243.878906 207.140625 244.820312 206.195312 244.347656 C 203.371094 244.347656 201.015625 243.878906 198.191406 242.933594 C 199.601562 251.882812 206.195312 258.949219 214.675781 260.832031 C 215.617188 260.832031 216.558594 261.773438 216.558594 263.1875 C 216.558594 264.128906 216.089844 265.070312 214.675781 265.542969 C 212.320312 266.015625 209.492188 266.484375 207.140625 266.484375 C 210.90625 273.550781 217.5 277.789062 225.507812 278.261719 C 226.449219 278.261719 227.390625 278.730469 227.863281 279.671875 C 228.335938 280.613281 227.863281 281.558594 226.921875 282.5 C 219.855469 287.210938 210.4375 290.976562 201.015625 291.917969 Z M 201.015625 291.917969 "/>
</g>
</svg>
